<svg xmlns="http://www.w3.org/2000/svg" width="18" height="18" viewBox="0 0 18 18">
    <g fill="#FFF" fill-rule="nonzero">
        <path d="M16.422.584L16.4.564A2.399 2.399 0 0 0 14.84 0c-.648 0-1.27.256-1.706.703l-8.26 8.444a.735.735 0 0 0-.167.266l-.971 2.72a.978.978 0 0 0 .15.93c.209.27.544.43.898.43.153 0 .303-.029.445-.087l2.812-1.149a.798.798 0 0 0 .269-.18l8.259-8.444c.86-.879.793-2.246-.148-3.05zM5.597 11.63l.57-1.595.048-.05 1.08.922-.048.049-1.65.674zm9.795-9.001l-7.02 7.178-1.081-.921 7.021-7.179a.732.732 0 0 1 .53-.218c.178 0 .35.063.482.176l.022.019a.639.639 0 0 1 .046.945z"/>
        <path d="M15.195 6.572a.754.754 0 0 0-.752.755v6.414a1.92 1.92 0 0 1-1.913 1.921H3.416a1.919 1.919 0 0 1-1.912-1.92V4.658a1.92 1.92 0 0 1 1.912-1.921h6.597a.754.754 0 0 0 .752-.756.754.754 0 0 0-.752-.755H3.416C1.533 1.227 0 2.767 0 4.659v9.082c0 1.893 1.533 3.432 3.416 3.432h9.114c1.884 0 3.417-1.54 3.417-3.432V7.327a.754.754 0 0 0-.752-.755z"/>
    </g>
</svg>
