<svg xmlns="http://www.w3.org/2000/svg" width="15" height="17" viewBox="0 0 15 17">
    <g fill="#FFF" fill-rule="nonzero">
        <path d="M1.997 15.755c.02.454.412.812.887.812h8.287c.476 0 .867-.358.887-.812l.592-11.932H1.406l.591 11.932zm6.905-8.968c0-.19.162-.345.361-.345h.577c.199 0 .36.155.36.345v6.816c0 .19-.161.345-.36.345h-.577c-.199 0-.36-.154-.36-.345V6.787zm-2.523 0c0-.19.161-.345.36-.345h.577c.2 0 .36.155.36.345v6.816c0 .19-.16.345-.36.345H6.74c-.199 0-.36-.154-.36-.345V6.787zm-2.524 0c0-.19.162-.345.36-.345h.578c.199 0 .36.155.36.345v6.816c0 .19-.161.345-.36.345h-.577c-.2 0-.36-.154-.36-.345V6.787zM13.46.72H9.373V.147c0-.081-.09-.147-.2-.147H4.883c-.11 0-.199.066-.199.147V.72H.596C.266.72 0 .918 0 1.162v1.387h14.056V1.162c0-.244-.267-.442-.596-.442z"/>
    </g>
</svg>
