<svg xmlns="http://www.w3.org/2000/svg" width="34" height="34" viewBox="0 0 34 34">
    <defs>
        <linearGradient id="a" x1="50%" x2="50%" y1="0%" y2="100%">
            <stop offset="0%" stop-color="#5F3390"/>
            <stop offset="100%" stop-color="#2E2F8A"/>
        </linearGradient>
    </defs>
    <g fill="none" fill-rule="evenodd">
        <circle cx="16.867" cy="16.904" r="16.867" fill="url(#a)"/>
        <path fill="#FFF" fill-rule="nonzero" d="M18.688 23.189c1.234.411 2.323.673 3.888 1.14-.602 7.392-7.784 4.457-3.888-1.14zm6.413-6.79c-.08-2.22-.482-5.13-3.682-4.674-1.5.38-2.608 1.984-3.13 4.75-.286 1.52-.12 3.654.218 4.934.308.902.204.846.535 1.017 1.283.282 2.552.593 3.846.91 1.313-.902 2.392-5.695 2.213-6.937zm-9.874-.17c.337-1.28.503-3.414.217-4.935-.52-2.766-1.629-4.369-3.13-4.75C9.116 6.088 8.715 9 8.633 11.22c-.179 1.242.9 6.034 2.214 6.937 1.293-.317 2.563-.628 3.846-.91.33-.171.226-.116.535-1.017zm-4.07 2.92c.602 7.392 7.784 4.457 3.888-1.14-1.233.411-2.322.673-3.887 1.14z"/>
    </g>
</svg>
