<svg xmlns="http://www.w3.org/2000/svg" width="41" height="41" viewBox="0 0 41 41">
    <defs>
        <linearGradient id="a" x1="26.292%" x2="73.097%" y1="27.729%" y2="75.175%">
            <stop offset="0%" stop-color="#BA64AE"/>
            <stop offset="100%" stop-color="#2E2F8A"/>
        </linearGradient>
        <linearGradient id="b" x1="26.255%" x2="76.34%" y1="30.16%" y2="80.657%">
            <stop offset="0%" stop-color="#BA64AE"/>
            <stop offset="100%" stop-color="#2E2F8A"/>
        </linearGradient>
    </defs>
    <path fill="url(#a)" fill-rule="nonzero" stroke="url(#b)" stroke-width=".608" d="M36.032 0H17.068a3.164 3.164 0 0 0-3.161 3.16v2.038a8.614 8.614 0 0 0-3.838 1.74l-.858.687a5.154 5.154 0 0 0-4.154 5.07v1.212c0 3.322 1.91 6.398 4.879 7.895.43.488.915.929 1.442 1.322v.431c0 .788-.474 1.482-1.209 1.768L5.24 27.24A8.167 8.167 0 0 0 0 34.9v4.292h25.917c.577 0 1.12-.224 1.526-.632l5.83-5.83a5.069 5.069 0 0 0 1.494-3.607 5.108 5.108 0 0 0-5.102-5.102 5.069 5.069 0 0 0-3.607 1.494l-.14.14-.14-.14a5.069 5.069 0 0 0-3.608-1.494c-1.282 0-2.45.478-3.348 1.26a1.88 1.88 0 0 1-1.122-1.725v-.431a9.402 9.402 0 0 0 1.442-1.323 8.821 8.821 0 0 0 2.198-1.573h14.692a3.164 3.164 0 0 0 3.16-3.16V3.16A3.164 3.164 0 0 0 36.032 0zM22.17 25.285c1.025 0 1.988.4 2.713 1.124l1.034 1.034 1.035-1.034a3.812 3.812 0 0 1 2.713-1.124 3.842 3.842 0 0 1 3.838 3.838 3.812 3.812 0 0 1-1.124 2.714l-5.83 5.83c-.332.332-.931.332-1.264 0l-5.83-5.83a3.812 3.812 0 0 1-1.123-2.714 3.842 3.842 0 0 1 3.838-3.838zm-4.215.968a5.071 5.071 0 0 0-.887 2.87c0 1.363.53 2.644 1.494 3.608l5.197 5.197H6.321v-6.321H5.057v6.321H1.264v-3.029a6.91 6.91 0 0 1 4.433-6.48l4.93-1.917a3.132 3.132 0 0 0 1.99-2.596c.547.29 1.126.537 1.74.72l.182.055.182-.054a9.622 9.622 0 0 0 1.741-.721c.108.982.656 1.84 1.493 2.347zm-3.416-2.894a8.185 8.185 0 0 1-5.69-7.834v-.538c0-.944.769-1.712 1.713-1.712.653 0 1.24.363 1.53.946l.872 1.742 5.227-1.96a1.51 1.51 0 0 1 2.037 1.412v.11a8.186 8.186 0 0 1-5.689 7.834zm4.181-10.716c-.333 0-.66.06-.973.176l-4.162 1.56-.361-.724a2.96 2.96 0 0 0-2.662-1.644 2.98 2.98 0 0 0-2.976 2.976v.538c0 1.174.216 2.301.606 3.347a7.593 7.593 0 0 1-1.87-4.965v-1.212a3.894 3.894 0 0 1 3.264-3.853l.163-.028 1.11-.888a7.345 7.345 0 0 1 4.575-1.605c4.038 0 7.323 3.286 7.323 7.324v.262a7.59 7.59 0 0 1-1.87 4.965 9.556 9.556 0 0 0 .606-3.347v-.11a2.776 2.776 0 0 0-2.773-2.772zm8.97.84l1.156-4.718 3.603 7.362 1.939-4.952h3.254v7.878H22.584c.292-.986 1.509-2.978 1.509-4.033v-.319c0-.413-.03-.818-.076-1.219h3.674zM38 9.835h-4.294l-1.401 3.394-3.807-7.676-1.571 7.051h-3.222c-.29-4.215-4.995-7.493-8.435-7.493V1.354H38v8.482z" transform="translate(.85 .59)"/>
</svg>
