<svg xmlns="http://www.w3.org/2000/svg" width="34" height="42" viewBox="0 0 34 42">
    <defs>
        <linearGradient id="b" x1="32.786%" x2="68.78%" y1="27.539%" y2="79.902%">
            <stop offset="0%" stop-color="#BA64AE"/>
            <stop offset="100%" stop-color="#2E2F8A"/>
        </linearGradient>
        <linearGradient id="a" x1="23.948%" x2="76.908%" y1="15.343%" y2="91.125%">
            <stop offset="0%" stop-color="#BA64AE"/>
            <stop offset="100%" stop-color="#2E2F8A"/>
        </linearGradient>
        <linearGradient id="d" x1="23.102%" x2="79.344%" y1="37.366%" y2="66.82%">
            <stop offset="0%" stop-color="#BA64AE"/>
            <stop offset="100%" stop-color="#2E2F8A"/>
        </linearGradient>
        <linearGradient id="c" x1="9.294%" x2="92.044%" y1="30.505%" y2="73.133%">
            <stop offset="0%" stop-color="#BA64AE"/>
            <stop offset="100%" stop-color="#2E2F8A"/>
        </linearGradient>
    </defs>
    <g fill="none" fill-rule="nonzero" stroke-width=".608">
        <path fill="url(#b)" stroke="url(#a)" d="M32.31 29.872a61.863 61.863 0 0 1-5.293-1.884.734.734 0 0 0-.558 0c-.898.371-2.78 1.11-5.293 1.884a.703.703 0 0 0-.455.426c-.435-.185-.88-.342-1.336-.471 1.937-1.277 2.86-3.588 2.317-5.804-.542-2.215-2.437-3.872-4.756-4.16v-8.472c2.154.342 3.738 2.153 3.742 4.28 0 .384.32.695.714.695a.705.705 0 0 0 .714-.696c.005-2.372 1.964-4.301 4.4-4.33 2.435-.03 4.443 1.85 4.509 4.221a.706.706 0 0 0 .714.676h.016a.705.705 0 0 0 .698-.707C32.29 6.91 25.073 0 16.222 0 7.372 0 .154 6.91 0 15.53c-.006.383.306.699.699.707h.015c.387 0 .703-.3.714-.676.06-2.28 1.921-4.128 4.262-4.226 2.34-.098 4.358 1.586 4.619 3.854 0 .021.002.043.005.065.017.138.025.277.024.416 0 .385.32.696.714.696a.705.705 0 0 0 .714-.696c.004-2.126 1.587-3.937 3.742-4.28v8.473c-2.32.288-4.213 1.943-4.757 4.158-.543 2.215.378 4.526 2.313 5.804-4.78 1.37-8.064 5.64-8.072 10.495 0 .384.32.695.714.695h21.032a.72.72 0 0 0 .19-.028c.022-.006.044-.01.066-.018l.017-.007.01-.004c2.704-1.02 4.495-3.14 5.321-6.308.342-1.35.498-2.739.466-4.13a.698.698 0 0 0-.499-.648zM21.97 12.093c-.277-3.133-1.11-7.815-3.565-10.544 5.467.825 10.017 4.528 11.821 9.622-2.544-1.953-6.23-1.542-8.255.922zm-19.753-.922C4.022 6.077 8.572 2.374 14.038 1.55c-2.452 2.725-3.285 7.4-3.565 10.534a5.928 5.928 0 0 0-4.592-2.145 5.974 5.974 0 0 0-3.664 1.233zm9.733.563c.351-3.421 1.364-8.36 4.272-10.23 2.907 1.872 3.92 6.81 4.272 10.23a5.948 5.948 0 0 0-4.272-1.795c-1.617 0-3.162.65-4.272 1.795zm2.665 9.783a4.278 4.278 0 0 1 4.574.885 4.011 4.011 0 0 1 .91 4.456c-.65 1.527-2.18 2.524-3.877 2.524-2.317-.004-4.193-1.832-4.197-4.089 0-1.652 1.022-3.143 2.59-3.776zm6.079 10.31c.054.953.201 1.898.439 2.823.559 2.143 1.562 3.806 2.989 4.974H6.446c.38-4.987 4.642-8.845 9.776-8.851 1.555 0 3.088.362 4.472 1.055zm6.044 7.744c-2.122-.884-3.54-2.653-4.22-5.263a13.995 13.995 0 0 1-.424-3.264 63.731 63.731 0 0 0 4.644-1.66c.929.376 2.55.997 4.643 1.66a14 14 0 0 1-.423 3.264c-.68 2.61-2.1 4.379-4.22 5.263z" transform="translate(.498 .374)"/>
        <path fill="url(#d)" stroke="url(#c)" d="M25.854 34.202a.491.491 0 0 0-.668.007.462.462 0 0 0-.022.65l.895.895a.489.489 0 0 0 .69 0l1.795-1.788a.463.463 0 0 0 .126-.459.477.477 0 0 0-.348-.331.49.49 0 0 0-.467.131l-1.45 1.445-.551-.55z" transform="translate(.498 .374)"/>
    </g>
</svg>
