<svg xmlns="http://www.w3.org/2000/svg" width="20" height="22" viewBox="0 0 20 22">
    <g fill="#FFF" fill-rule="nonzero" stroke="#FFF" stroke-width=".2">
        <path d="M19.275 12.685h-.292V9.996c0-.426-.207-.803-.524-1.032v-.366a.954.954 0 0 0-.942-.963H17.3l.834-1.252a.935.935 0 0 0-.237-1.279L11.711 1.16a.878.878 0 0 0-.674-.144.893.893 0 0 0-.577.387l-4.885 7.33h-.834l.328-3.395a.1.1 0 0 1 .062-.085 2.124 2.124 0 0 0 1.03-.856.097.097 0 0 1 .093-.045l1.344.295a.28.28 0 0 0 .304-.255.283.283 0 0 0-.25-.31L6.31 3.786a.646.646 0 0 0-.616.305c-.179.287-.448.51-.759.63a.662.662 0 0 0-.419.56l-.333 3.452h-.355l.52-5.37a.347.347 0 0 1 .376-.316l3.52.515a.28.28 0 0 0 .304-.255.283.283 0 0 0-.249-.31l-3.52-.516a.907.907 0 0 0-.985.826l-.418 4.328h-.712a.954.954 0 0 0-.942.963v.25c-.425.2-.721.64-.721 1.148v9.69c0 .697.554 1.264 1.236 1.264h15.511c.682 0 1.236-.567 1.236-1.264v-2.689h.292a.633.633 0 0 0 .625-.639v-3.034c0-.352-.28-.639-.625-.639zm-1.758-4.481a.39.39 0 0 1 .386.394v.145a1.212 1.212 0 0 0-.156-.01h-1.18l.353-.53h.597zM10.97 1.64a.342.342 0 0 1 .479-.092l6.135 4.025c.157.11.198.329.09.49l-1.778 2.669h-.427l.872-1.31a.677.677 0 0 0 .03-.704 1.619 1.619 0 0 1-.186-.98.67.67 0 0 0-.281-.639l-3.004-1.986a.638.638 0 0 0-.683-.034c-.29.164-.632.228-.96.181a.652.652 0 0 0-.631.287L7.2 8.733l-.89-.048 4.66-7.044zm.598 4.909c-1.21 0-2.204.965-2.285 2.183h-1.41l3.282-4.923a.099.099 0 0 1 .094-.044c.447.064.91-.024 1.306-.247a.096.096 0 0 1 .102.007L15.59 5.57c.03.022.047.059.043.095-.059.457.031.931.253 1.333a.103.103 0 0 1-.005.106l-1.086 1.629h-.942c-.081-1.218-1.075-2.183-2.286-2.183zm1.728 2.183H9.84c.08-.904.824-1.614 1.728-1.614s1.649.71 1.728 1.614zM2.277 8.598a.39.39 0 0 1 .386-.394h.657l-.051.529h-.992v-.135zm-.721 1.398c0-.383.305-.695.68-.695h15.511c.375 0 .68.312.68.695v.789H1.556v-.789zm16.87 9.69a.688.688 0 0 1-.679.695H2.236a.688.688 0 0 1-.68-.695v-.788h1.5a.281.281 0 0 0 .277-.285.281.281 0 0 0-.278-.284H1.556v-6.976h16.87v1.332h-2.642c-.833 0-1.555.497-1.897 1.215l-.004.007-.008.019a2.194 2.194 0 0 0-.2.915c0 1.19.946 2.156 2.109 2.156h2.643v1.332H4.835a.281.281 0 0 0-.278.284c0 .157.125.285.278.285h13.592v.788zm.918-3.328a.07.07 0 0 1-.07.07h-3.49a1.55 1.55 0 0 1-1.458-1.042 1.612 1.612 0 0 1 .093-1.3 1.55 1.55 0 0 1 1.365-.832h3.49a.07.07 0 0 1 .07.07v3.034z"/>
        <path d="M15.962 14.125a.788.788 0 0 0 0 1.575.788.788 0 0 0 0-1.575zm0 1.187a.4.4 0 1 1 .001-.8.4.4 0 0 1 0 .8z"/>
    </g>
</svg>
