<svg xmlns="http://www.w3.org/2000/svg" width="34" height="34" viewBox="0 0 34 34">
    <defs>
        <linearGradient id="a" x1="50%" x2="50%" y1="0%" y2="100%">
            <stop offset="0%" stop-color="#5F3390"/>
            <stop offset="100%" stop-color="#2E2F8A"/>
        </linearGradient>
    </defs>
    <g fill="none" fill-rule="evenodd">
        <circle cx="16.867" cy="16.904" r="16.867" fill="url(#a)"/>
        <g fill="#FFF" fill-rule="nonzero">
            <path d="M18.1 19.83a.88.88 0 0 0-.244-.192 2.808 2.808 0 0 0-.62-.238v1.78c.343-.042.738-.178.919-.526a.874.874 0 0 0 .068-.555.578.578 0 0 0-.122-.269zM18.154 20.714l.004-.007-.004.007zM15.67 16.955a.729.729 0 0 0-.105.317.847.847 0 0 0 .034.35.544.544 0 0 0 .195.24c.09.069.188.122.289.168.084.038.18.074.281.11v-1.632c-.258.062-.54.194-.695.447zM18.164 20.697l-.016.028.016-.028z"/>
            <path d="M18.156 20.637c0-.002.001-.002 0 0z"/>
            <path d="M17.819 10.87c1.382-1.285 2.306-4.178 1.737-4.305-.755-.168-2.395.57-3.188.7-1.124.15-2.349-1.349-3.036-.514-.56.68.4 3.15 1.902 4.225-4.48 2.435-10.775 14.657.208 15.544 15.197 1.227 7.587-13.278 2.377-15.65zm1.305 9.638a1.817 1.817 0 0 1-.617 1.2c-.36.309-.812.452-1.261.493v.526c0 .141-.056.277-.151.37a.417.417 0 0 1-.483.08.504.504 0 0 1-.26-.45v-.575a2.695 2.695 0 0 1-.229-.059 2.173 2.173 0 0 1-1.486-1.538c-.015-.055-.03-.11-.035-.168a.54.54 0 0 1 .048-.278.443.443 0 0 1 .436-.264c.176.017.33.152.385.337.017.057.028.115.047.172a1.251 1.251 0 0 0 .265.44c.158.168.36.278.57.343V19.18c-.411-.118-.834-.27-1.173-.56a1.484 1.484 0 0 1-.396-.526 1.794 1.794 0 0 1-.138-.708 1.75 1.75 0 0 1 .5-1.273c.33-.335.767-.522 1.206-.59v-.547c0-.141.056-.277.151-.37a.417.417 0 0 1 .483-.08c.157.08.26.259.26.45v.543c.058.008.117.018.175.03.43.086.852.283 1.167.626a1.901 1.901 0 0 1 .462.925.542.542 0 0 1-.037.282.448.448 0 0 1-.424.285.457.457 0 0 1-.398-.317c-.019-.054-.028-.111-.047-.165a.908.908 0 0 0-.285-.4 1.371 1.371 0 0 0-.613-.266v1.872c.258.068.516.143.763.25.374.164.728.414.932.808a4.774 4.774 0 0 1 .001.002c.063.12.033.063.001.002.163.317.216.695.18 1.054zM18.164 20.697l-.016.028.016-.028z"/>
        </g>
    </g>
</svg>
