<svg xmlns="http://www.w3.org/2000/svg" width="34" height="34" viewBox="0 0 34 34">
    <defs>
        <linearGradient id="a" x1="50%" x2="50%" y1="0%" y2="100%">
            <stop offset="0%" stop-color="#5F3390"/>
            <stop offset="100%" stop-color="#2E2F8A"/>
        </linearGradient>
    </defs>
    <g fill="none" fill-rule="evenodd">
        <circle cx="16.867" cy="16.904" r="16.867" fill="url(#a)"/>
        <g fill="#FFF" fill-rule="nonzero">
            <path d="M23.41 17.262a6.19 6.19 0 0 0-6.184-6.183 6.19 6.19 0 0 0-6.184 6.183 6.19 6.19 0 0 0 6.184 6.184 6.19 6.19 0 0 0 6.183-6.184zm-6.76 3.633V20.3c-.413 0-.822-.035-1.313-.385a.6.6 0 0 1-.145-.823.567.567 0 0 1 .802-.148.893.893 0 0 0 .5.175h1.395c.334 0 .613-.28.613-.633a.624.624 0 0 0-.614-.632h-1.324c-.974 0-1.766-.813-1.766-1.814 0-.918.678-1.813 1.852-1.813v-.596c0-.326.258-.59.576-.59.318 0 .576.264.576.59v.596c.62 0 1.148.262 1.524.675a.601.601 0 0 1-.028.834.565.565 0 0 1-.813-.028.893.893 0 0 0-.644-.3h-1.278a.624.624 0 0 0-.614.632c0 .35.276.633.615.633h1.324c.973 0 1.765.814 1.765 1.813 0 .929-.687 1.814-1.851 1.814v.596c0 .326-.258.59-.576.59a.583.583 0 0 1-.576-.59z"/>
            <path d="M11.695 24.32l-.316-2.253a.581.581 0 0 0-.656-.498.586.586 0 0 0-.493.663l.07.504a8.843 8.843 0 0 1-1.415-2.522c-2.353-6.5 3.33-13.057 9.958-11.628a.587.587 0 0 0 .242-1.147C11.602 5.824 5.11 13.204 7.795 20.616a10.02 10.02 0 0 0 1.6 2.854l-.561-.11a.586.586 0 1 0-.22 1.152l2.347.456a.585.585 0 0 0 .734-.648zM26.657 13.908a10.02 10.02 0 0 0-1.6-2.853l.56.109a.586.586 0 1 0 .22-1.152l-2.347-.456c-.418-.119-.79.243-.734.649l.316 2.253c.045.322.34.544.656.498a.586.586 0 0 0 .494-.662l-.071-.505a8.843 8.843 0 0 1 1.415 2.522c2.354 6.5-3.33 13.057-9.957 11.629a.587.587 0 0 0-.242 1.147c7.483 1.613 13.973-5.766 11.29-13.179z"/>
        </g>
    </g>
</svg>
