<svg xmlns="http://www.w3.org/2000/svg" width="34" height="34" viewBox="0 0 34 34">
    <defs>
        <linearGradient id="a" x1="50%" x2="50%" y1="0%" y2="100%">
            <stop offset="0%" stop-color="#5F3390"/>
            <stop offset="100%" stop-color="#2E2F8A"/>
        </linearGradient>
    </defs>
    <g fill="none" fill-rule="evenodd">
        <circle cx="16.867" cy="16.904" r="16.867" fill="url(#a)"/>
        <g fill="#FFF" fill-rule="nonzero" transform="translate(7.895 7.177)">
            <path d="M8.972 13.195c-2.563 0-4.64 2.143-4.64 4.785h9.28a4.861 4.861 0 0 0-1.359-3.383 4.57 4.57 0 0 0-3.281-1.402zM17.943 8.34c-.04-1.54-1.39-2.762-3.027-2.742-1.637.019-2.953 1.273-2.953 2.813 0-1.554-1.34-2.814-2.991-2.814-1.652 0-2.992 1.26-2.992 2.814a2.176 2.176 0 0 0-.016-.294C5.8 6.642 4.447 5.54 2.87 5.598 1.295 5.658.04 6.857 0 8.34.08 3.733 4.073.037 8.972.037c4.899 0 8.892 3.696 8.971 8.303z"/>
            <path d="M8.972 5.42c-.171 0-.31.132-.31.295V9.91c0 .164.139.296.31.296.17 0 .31-.132.31-.296V5.715a.303.303 0 0 0-.31-.295z"/>
            <ellipse cx="8.972" cy="11.102" rx="2.166" ry="2.093"/>
        </g>
    </g>
</svg>
