<svg xmlns="http://www.w3.org/2000/svg" width="34" height="34" viewBox="0 0 34 34">
    <defs>
        <linearGradient id="a" x1="50%" x2="50%" y1="0%" y2="100%">
            <stop offset="0%" stop-color="#5F3390"/>
            <stop offset="100%" stop-color="#2E2F8A"/>
        </linearGradient>
    </defs>
    <g fill="none" fill-rule="evenodd">
        <circle cx="16.867" cy="16.904" r="16.867" fill="url(#a)"/>
        <g fill="#FFF" fill-rule="nonzero">
            <path d="M19.126 8.715v3.915h3.8z"/>
            <path d="M18.84 13.55a.55.55 0 0 1-.538-.563V7.932h-6.998a.55.55 0 0 0-.538.562v16.102c0 .31.241.562.538.562h11.843a.55.55 0 0 0 .538-.562V13.549h-4.844zm-1.076 8.237h-4.306a.55.55 0 0 1-.539-.561.55.55 0 0 1 .539-.562h4.306a.55.55 0 0 1 .538.562.55.55 0 0 1-.538.561zm3.23-2.246h-7.536a.55.55 0 0 1-.539-.562.55.55 0 0 1 .539-.562h7.536a.55.55 0 0 1 .538.562.55.55 0 0 1-.538.562zm0-2.247h-7.536a.55.55 0 0 1-.539-.562.55.55 0 0 1 .539-.562h7.536a.55.55 0 0 1 .538.562.55.55 0 0 1-.538.562z"/>
        </g>
    </g>
</svg>
