<svg xmlns="http://www.w3.org/2000/svg" width="46" height="40" viewBox="0 0 46 40">
    <defs>
        <linearGradient id="a" x1="6.344%" x2="93.656%" y1="0%" y2="84.099%">
            <stop offset="0%" stop-color="#BA64AE"/>
            <stop offset="100%" stop-color="#2E2F8A"/>
        </linearGradient>
        <linearGradient id="b" x1="15.993%" x2="66.286%" y1="6.602%" y2="97.01%">
            <stop offset="0%" stop-color="#BA64AE"/>
            <stop offset="100%" stop-color="#2E2F8A"/>
        </linearGradient>
        <linearGradient id="c" x1="31.378%" x2="84.428%" y1="9.801%" y2="92.188%">
            <stop offset="0%" stop-color="#BA64AE"/>
            <stop offset="100%" stop-color="#2E2F8A"/>
        </linearGradient>
    </defs>
    <g fill="none" fill-rule="nonzero">
        <path fill="url(#a)" stroke="url(#b)" stroke-width=".608" d="M.586 9.282h3.516v3.763c0 .346.262.627.586.627h3.399c.323 0 .586-.281.586-.627V9.282h3.516c.323 0 .586-.281.586-.627V5.017c0-.346-.263-.627-.586-.627H8.673V.627C8.673.281 8.41 0 8.087 0H4.688c-.324 0-.586.28-.586.627V4.39H.586c-.324 0-.586.28-.586.627v3.638c0 .346.262.627.586.627zm.586-3.638h3.516c.324 0 .586-.28.586-.627V1.254h2.227v3.763c0 .347.262.627.586.627h3.516v2.383H8.087c-.324 0-.586.281-.586.628v3.762H5.274V8.655c0-.347-.262-.628-.586-.628H1.172V5.644z" transform="translate(32.004 14.262)"/>
        <path fill="url(#c)" d="M10.874 14.103C4.81 14.867.367 20.006.367 26.462c0 6.98 5.034 12.432 11.75 12.432 2.678 0 5.024-.702 7.153-2.38 1.348-1.063 2.696-2.86 3.516-4.387l1.374 3.552c.395 1.052 1.188 1.65 2.274 1.65h3.641c.766 0 1.192-.13 1.665-.551.474-.422.615-1.142.615-1.868 0-1.46-.853-2.393-2.28-2.393h-1.068l-2.852-8.287c-.754-2.11-2.42-3.214-4.584-3.214H19.59l-.002-2.594h5.433c1.711 0 2.917-1.15 2.917-2.929 0-1.778-1.206-2.836-2.917-2.836h-5.558c-.03-1.248-.366-2.74-1.239-3.603-.05-.05-.265-.183-.318-.23 1.09-.91 1.881-2.309 1.881-3.87 0-2.732-1.884-4.61-4.512-4.61-2.628 0-4.559 1.878-4.559 4.61 0 1.565.874 2.961 1.968 3.87-.969.879-1.81 2.18-1.81 3.627v1.652zm4.341 14.203h1.84c-.798 2.008-2.707 3.714-4.881 3.714-2.91 0-5.279-2.461-5.279-5.486 0-2.475 1.765-4.664 3.964-5.335v2.71c0 2.607 1.849 4.397 4.356 4.397zm-3.037 8.645c-5.526 0-10.022-4.674-10.022-10.418 0-5.219 3.912-9.605 8.771-10.353v2.734c-3.406.72-6.072 3.91-6.072 7.619 0 4.26 3.224 7.47 7.323 7.47 3.361 0 6.269-2.37 7.154-5.65h1.964l.454 1.232c-1.325 4.26-5.245 7.366-9.572 7.366zm6.528-22.433h6.315c.521 0 .946.441.946.984 0 .542-.425.983-.946.983h-6.315c-.595 0-1.078.503-1.078 1.121v4.238c0 .619.483 1.12 1.078 1.12h2.863c1.267 0 2.416.83 2.857 2.066l.475 1.326 2.593 7.254c.157.44.56.73 1.01.73h1.571c.32 0 .59.24.617.546a.617.617 0 0 1-.15.467.567.567 0 0 1-.43.197h-3.587a.458.458 0 0 1-.43-.305l-3.058-8.151a1.08 1.08 0 0 0-1.004-.713h-6.797c-1.319 0-2.392-1.116-2.392-2.488V12.451c0-1.356.994-2.472 2.263-2.54a2.325 2.325 0 0 1 1.776.68c.481.474.746 1.115.746 1.803v1.003c0 .62.482 1.12 1.077 1.12zM15.236 2.24c1.44 0 2.61 1.217 2.61 2.713 0 1.495-1.17 2.711-2.609 2.712h-.007c-1.436-.003-2.603-1.219-2.603-2.712 0-1.496 1.17-2.713 2.609-2.713z" transform="translate(.066 .59)"/>
    </g>
</svg>
