<svg xmlns="http://www.w3.org/2000/svg" width="38" height="38" viewBox="0 0 38 38">
    <defs>
        <linearGradient id="a" x1="16.543%" x2="80.665%" y1="28.098%" y2="85.674%">
            <stop offset="0%" stop-color="#BA64AE"/>
            <stop offset="100%" stop-color="#2E2F8A"/>
        </linearGradient>
        <linearGradient id="b" x1="13.325%" x2="85.43%" y1="20.753%" y2="89.324%">
            <stop offset="0%" stop-color="#BA64AE"/>
            <stop offset="100%" stop-color="#2E2F8A"/>
        </linearGradient>
    </defs>
    <g fill="url(#a)" fill-rule="nonzero" stroke="url(#b)" stroke-width=".608" transform="translate(-594 -215)">
        <path d="M630.78 226.96h-.608v-6.685a.608.608 0 0 0-.607-.607h-10.33v-3.038a.608.608 0 0 0-.608-.608H607.69a.608.608 0 0 0-.608.608v3.038h-10.33a.608.608 0 0 0-.607.607v6.684h-.608a.608.608 0 0 0-.607.608v2.43c0 .336.272.608.607.608h.608v21.267c0 .336.272.608.607.608h32.813a.608.608 0 0 0 .607-.608v-21.267h.608a.608.608 0 0 0 .607-.607v-2.431a.608.608 0 0 0-.607-.608zm-11.545-6.077h9.722v6.076h-9.722v-6.076zm-10.938-3.646h9.723v9.722h-9.723v-9.722zm-10.937 3.646h9.722v6.076h-9.722v-6.076zm27.344 30.382h-7.9v-4.861h7.9v4.86zm0-6.077h-7.9v-6.076h7.9v6.076zm0-7.291h-7.9v-3.038h7.9v3.038zm4.253 13.368h-3.038V234.25a.608.608 0 0 0-.608-.608h-9.114a.608.608 0 0 0-.608.608v17.014H597.36v-20.66h31.597v20.66zm1.215-21.875h-34.027v-1.215h34.027v1.215z"/>
        <path d="M608.905 239.72h-1.215v-1.216a.608.608 0 0 0-.608-.607h-2.43a.608.608 0 0 0-.608.607v1.216h-1.215a.608.608 0 0 0-.608.607v2.43c0 .336.272.609.608.609h1.215v1.215c0 .335.272.607.608.607h2.43a.608.608 0 0 0 .608-.607v-1.215h1.215a.608.608 0 0 0 .608-.608v-2.43a.608.608 0 0 0-.608-.608zm-.608 2.43h-1.215a.608.608 0 0 0-.607.608v1.215h-1.216v-1.215a.608.608 0 0 0-.607-.608h-1.216v-1.215h1.216a.608.608 0 0 0 .607-.608v-1.215h1.216v1.215c0 .336.272.608.607.608h1.215v1.215z"/>
    </g>
</svg>
